<svg width="326" height="250" viewBox="0 0 326 250" fill="none" xmlns="http://www.w3.org/2000/svg">
<g clip-path="url(#clip0_256_15119)">
<path d="M76.1446 250.305H249.578C264.624 250.305 278.38 239.441 280.248 226.09L281.65 216.036C283.593 202.092 285.611 187.62 287.62 172.694L295.902 112.364C296.022 111.457 295.781 110.301 295.181 109.611C294.581 108.922 293.749 108.284 292.833 108.284H33.0241C32.1094 108.284 31.239 108.681 30.6394 109.368C30.0385 110.057 29.7689 110.973 29.8965 111.876C32.821 133.089 35.597 153.313 38.237 172.698C39.8197 183.799 41.2969 194.63 42.737 205.179L45.6172 226.087C47.4773 239.44 61.1732 250.305 76.1446 250.305ZM289.211 114.606L281.35 171.842C279.34 186.764 277.329 201.229 275.387 215.165L273.992 225.216C272.538 235.563 261.587 243.982 249.578 243.982H76.1446C64.2038 243.982 53.3204 235.563 51.8725 225.216L49 204.324C47.5599 193.763 46.0821 182.917 44.4994 171.824C42.0092 153.553 39.392 134.512 36.6472 114.606H289.211Z" fill="#B40000"/>
<path d="M25.9375 114.606H299.931C305.204 114.606 309.486 110.35 309.486 105.122V92.3373C309.486 87.1094 305.204 82.8561 299.931 82.8561H210.658C208.91 82.8561 207.5 84.2741 207.5 86.0176C207.5 87.7617 208.91 89.1797 210.658 89.1797H299.931C301.686 89.1797 303.171 90.6237 303.171 92.3373V105.121C303.171 106.835 301.686 108.283 299.931 108.283H25.9375C24.1979 108.283 22.8333 106.895 22.8333 105.121V92.3373C22.8333 90.5671 24.1979 89.1797 25.9375 89.1797H165.342C167.09 89.1797 168.5 87.7617 168.5 86.0176C168.5 84.2741 167.09 82.8561 165.342 82.8561L25.9375 82.8561C20.7402 82.8561 16.5176 87.1087 16.5176 92.3373V105.121C16.5176 110.35 20.7402 114.606 25.9375 114.606Z" fill="#B40000"/>
<path d="M83.2324 228.812C89.7278 228.812 95.0156 223.423 95.0156 216.8V151.898C95.0156 145.354 89.7278 140.029 83.2324 140.029C76.737 140.029 71.4564 145.354 71.4564 151.898V216.8C71.4564 223.423 76.737 228.812 83.2324 228.812ZM83.2324 146.352C86.1953 146.352 88.6999 148.891 88.6999 151.898V216.8C88.6999 219.939 86.2474 222.489 83.2324 222.489C80.2246 222.489 77.7721 219.939 77.7721 216.8V151.898C77.7721 148.891 80.2767 146.352 83.2324 146.352ZM123.15 228.812C129.646 228.812 134.934 223.423 134.934 216.8V151.898C134.934 145.354 129.646 140.029 123.15 140.029C116.579 140.029 111.232 145.354 111.232 151.898V216.8C111.232 223.423 116.579 228.812 123.15 228.812ZM123.15 146.352C126.113 146.352 128.618 148.891 128.618 151.898V216.8C128.618 219.939 126.165 222.489 123.15 222.489C120.008 222.489 117.548 219.992 117.548 216.8V151.898C117.547 148.838 120.059 146.352 123.15 146.352ZM162.933 228.812C169.428 228.812 174.708 223.423 174.708 216.8V151.898C174.708 145.354 169.428 140.029 162.933 140.029C156.438 140.029 151.15 145.354 151.15 151.898V216.8C151.149 223.423 156.438 228.812 162.933 228.812ZM162.933 146.352C165.887 146.352 168.393 148.891 168.393 151.898V216.8C168.393 219.939 165.941 222.489 162.933 222.489C159.917 222.489 157.464 219.939 157.464 216.8V151.898C157.464 148.891 159.969 146.352 162.933 146.352ZM202.85 228.812C209.345 228.812 214.625 223.423 214.625 216.8V151.898C214.625 145.354 209.344 140.029 202.85 140.029C196.272 140.029 190.924 145.354 190.924 151.898V216.8C190.924 223.423 196.272 228.812 202.85 228.812ZM202.85 146.352C205.805 146.352 208.311 148.891 208.311 151.898V216.8C208.311 219.939 205.857 222.489 202.85 222.489C199.707 222.489 197.24 219.992 197.24 216.8V151.898C197.24 148.838 199.76 146.352 202.85 146.352ZM242.625 228.812C249.12 228.812 254.408 223.423 254.408 216.8V151.898C254.408 145.354 249.12 140.029 242.625 140.029C236.13 140.029 230.842 145.354 230.842 151.898V216.8C230.842 223.423 236.13 228.812 242.625 228.812ZM242.625 146.352C245.588 146.352 248.094 148.891 248.094 151.898V216.8C248.094 219.939 245.641 222.489 242.625 222.489C239.611 222.489 237.158 219.939 237.158 216.8V151.898C237.157 148.891 239.663 146.352 242.625 146.352Z" fill="#B40000"/>
<path d="M191.049 103.611C192.144 103.611 193.247 103.419 194.305 103.033C199.458 101.158 202.181 95.5066 200.373 90.4323L176.604 20.7969C174.406 14.9056 170.408 9.65563 165.33 5.92777C160.102 1.92256 153.937 -0.304657 148.019 -0.304657H105.461C102.303 -0.304657 99.3928 0.190134 96.8283 1.16539C92.1779 2.78128 88.4572 5.60941 85.8543 9.53909C83.3042 13.2409 81.9995 17.6739 81.9995 22.6615C81.9995 25.8041 82.5171 28.9772 83.5451 32.0821L102.476 87.0456C102.911 88.3242 104.112 89.1797 105.462 89.1797H119.51C120.53 89.1797 121.49 88.6843 122.082 87.8555C122.675 87.0267 122.833 85.9577 122.502 84.9935L102.199 25.7103C101.861 24.5931 101.666 23.4974 101.666 22.6608C101.666 21.8581 101.846 21.1908 102.207 20.6849C102.356 20.4558 102.716 20.1114 103.384 19.8561C103.504 19.8184 104.171 19.6426 105.462 19.6426H148.02C149.595 19.6426 151.77 20.4935 153.705 21.8659C155.678 23.3099 157.186 25.2819 157.8 27.2552L181.757 96.8783C182.671 99.4551 184.569 101.563 186.977 102.691C188.274 103.303 189.662 103.611 191.049 103.611ZM148.019 6.01761C152.489 6.01761 157.417 7.82946 161.542 10.9831C165.69 14.0326 168.907 18.2585 170.648 22.9239L194.403 92.5131C195.062 94.3666 194.043 96.4024 192.145 97.0925C191.11 97.472 190.232 97.2351 189.662 96.9727C188.77 96.5528 188.065 95.7579 187.719 94.7897L163.8 25.2865C162.81 22.0873 160.522 19.0241 157.403 16.7396C154.327 14.5567 150.921 13.3197 148.019 13.3197H105.461C103.819 13.3197 102.408 13.5189 101.253 13.9089C99.3628 14.6211 97.8856 15.7539 96.9781 17.1341C95.9279 18.6224 95.3504 20.5619 95.3504 22.6621C95.3504 24.1244 95.6278 25.8015 96.1753 27.6426L115.084 82.8568H107.718L89.5301 30.0651C88.7274 27.6348 88.3153 25.1335 88.3153 22.6621C88.3153 18.9271 89.23 15.7917 91.0978 13.0769C92.9501 10.2787 95.59 8.28714 98.9878 7.10615C100.923 6.37503 103.069 6.01826 105.461 6.01826H148.019V6.01761Z" fill="#B40000"/>
</g>
<defs>
<clipPath id="clip0_256_15119">
<rect width="325.521" height="250" fill="white" transform="matrix(-1 0 0 1 325.76 0)"/>
</clipPath>
</defs>
</svg>
