<svg width="25" height="25" viewBox="0 0 25 25" fill="none" xmlns="http://www.w3.org/2000/svg">
<path fill-rule="evenodd" clip-rule="evenodd" d="M12.499 6.28313C9.02915 6.28313 6.28216 9.03012 6.28216 12.5C6.28216 15.9699 9.02915 18.7169 12.499 18.7169C15.9689 18.7169 18.7159 15.9699 18.7159 12.5C18.7159 9.03012 15.9689 6.28313 12.499 6.28313ZM8.45083 12.5C8.45083 14.8133 10.3303 16.5482 12.499 16.5482C14.6677 16.5482 16.5472 14.6687 16.5472 12.5C16.5472 10.1867 14.6677 8.45181 12.499 8.45181C10.1858 8.45181 8.45083 10.3313 8.45083 12.5Z" fill="white"/>
<path d="M20.3063 6.13856C20.3063 6.93704 19.659 7.58434 18.8605 7.58434C18.062 7.58434 17.4147 6.93704 17.4147 6.13856C17.4147 5.34007 18.062 4.69277 18.8605 4.69277C19.659 4.69277 20.3063 5.34007 20.3063 6.13856Z" fill="white"/>
<path fill-rule="evenodd" clip-rule="evenodd" d="M7.58336 0.5L17.4147 0.5C18.7159 0.644578 19.5834 0.789158 20.3063 1.07831C21.1737 1.51205 21.752 1.80121 22.4749 2.5241C23.1978 3.24699 23.6316 3.96988 23.9207 4.69277C24.2099 5.41566 24.499 6.28313 24.499 7.58434V17.4157C24.3544 18.7169 24.2099 19.5843 23.9207 20.3072C23.487 21.1747 23.1978 21.753 22.4749 22.4759C21.752 23.1988 21.0291 23.6325 20.3063 23.9217C19.5834 24.2108 18.7159 24.5 17.4147 24.5H7.58336C6.28216 24.3554 5.41469 24.2108 4.6918 23.9217C3.82432 23.488 3.24601 23.1988 2.52312 22.4759C1.80023 21.753 1.36649 21.0301 1.07734 20.3072C0.788181 19.5843 0.499023 18.7169 0.499023 17.4157L0.499023 7.58434C0.643602 6.28313 0.788181 5.41566 1.07734 4.69277C1.51107 3.8253 1.80023 3.24699 2.52312 2.5241C3.24601 1.80121 3.9689 1.36747 4.6918 1.07831C5.41469 0.789158 6.28216 0.5 7.58336 0.5ZM7.58336 2.66867L17.4147 2.66867C18.3924 2.66867 18.9569 2.87529 19.3701 3.02654C19.4457 3.05422 19.5163 3.08004 19.5834 3.10241C19.7039 3.16266 19.8186 3.21689 19.9279 3.26851C20.3427 3.46451 20.6859 3.62667 21.0291 3.96988C21.4629 4.40362 21.752 4.83735 21.8966 5.41566C22.0412 5.8494 22.1858 6.42771 22.3303 7.58434V17.4157C22.3303 18.3934 22.1237 18.9578 21.9725 19.3711C21.9448 19.4467 21.919 19.5172 21.8966 19.5843C21.8363 19.705 21.7822 19.8195 21.7305 19.9289C21.5345 20.3437 21.3724 20.6869 21.0291 21.0301C20.5954 21.4639 20.1617 21.753 19.5834 21.8976C19.1496 22.0422 18.5713 22.1867 17.4147 22.3313H7.58336C6.60566 22.3313 6.04119 22.1247 5.62797 21.9735C5.55234 21.9458 5.48179 21.92 5.41469 21.8976C5.29399 21.8372 5.17959 21.7832 5.07017 21.7315C4.65533 21.5355 4.31211 21.3733 3.9689 21.0301C3.53517 20.5964 3.24601 20.1627 3.10143 19.5843C2.95685 19.1506 2.81228 18.5723 2.6677 17.4157L2.6677 7.58434C2.6677 6.60664 2.87431 6.04217 3.02556 5.62895C3.05324 5.55332 3.07907 5.48276 3.10143 5.41566C3.16173 5.29507 3.21588 5.18047 3.26753 5.07114C3.46354 4.6563 3.62569 4.31309 3.9689 3.96988C4.40264 3.53615 4.83637 3.24699 5.41469 3.10241C5.84842 2.95783 6.42673 2.81325 7.58336 2.66867Z" fill="white"/>
</svg>
