<svg width="44" height="44" viewBox="0 0 44 44" fill="none" xmlns="http://www.w3.org/2000/svg">
<g clip-path="url(#clip0_4011_2371)">
<circle cx="22" cy="22" r="22" fill="#101036"/>
<g clip-path="url(#clip1_4011_2371)">
<path fill-rule="evenodd" clip-rule="evenodd" d="M22 16.3012C18.8193 16.3012 16.3012 18.8193 16.3012 22C16.3012 25.1807 18.8193 27.6988 22 27.6988C25.1807 27.6988 27.6988 25.1807 27.6988 22C27.6988 18.8193 25.1807 16.3012 22 16.3012ZM18.2892 22C18.2892 24.1205 20.012 25.7108 22 25.7108C23.988 25.7108 25.7108 23.988 25.7108 22C25.7108 19.8795 23.988 18.2892 22 18.2892C19.8795 18.2892 18.2892 20.012 18.2892 22Z" fill="white"/>
<path d="M29.1566 16.1687C29.1566 16.9006 28.5633 17.494 27.8313 17.494C27.0994 17.494 26.506 16.9006 26.506 16.1687C26.506 15.4367 27.0994 14.8434 27.8313 14.8434C28.5633 14.8434 29.1566 15.4367 29.1566 16.1687Z" fill="white"/>
<path fill-rule="evenodd" clip-rule="evenodd" d="M17.494 11H26.506C27.6988 11.1325 28.494 11.2651 29.1566 11.5301C29.9518 11.9277 30.4819 12.1928 31.1446 12.8554C31.8072 13.5181 32.2048 14.1807 32.4699 14.8434C32.7349 15.506 33 16.3012 33 17.494V26.506C32.8675 27.6988 32.7349 28.494 32.4699 29.1566C32.0723 29.9518 31.8072 30.4819 31.1446 31.1446C30.4819 31.8072 29.8193 32.2048 29.1566 32.4699C28.494 32.7349 27.6988 33 26.506 33H17.494C16.3012 32.8675 15.506 32.7349 14.8434 32.4699C14.0482 32.0723 13.5181 31.8072 12.8554 31.1446C12.1928 30.4819 11.7952 29.8193 11.5301 29.1566C11.2651 28.494 11 27.6988 11 26.506V17.494C11.1325 16.3012 11.2651 15.506 11.5301 14.8434C11.9277 14.0482 12.1928 13.5181 12.8554 12.8554C13.5181 12.1928 14.1807 11.7952 14.8434 11.5301C15.506 11.2651 16.3012 11 17.494 11ZM17.494 12.988H26.506C27.4022 12.988 27.9197 13.1773 28.2985 13.316C28.3678 13.3414 28.4325 13.365 28.494 13.3855C28.6044 13.4408 28.7096 13.4905 28.8098 13.5378C29.1901 13.7175 29.5047 13.8661 29.8193 14.1807C30.2169 14.5783 30.4819 14.9759 30.6145 15.506C30.747 15.9036 30.8795 16.4337 31.012 17.494V26.506C31.012 27.4022 30.8227 27.9197 30.684 28.2985C30.6586 28.3678 30.635 28.4325 30.6145 28.494C30.5592 28.6046 30.5096 28.7095 30.4622 28.8098C30.2825 29.1901 30.1339 29.5047 29.8193 29.8193C29.4217 30.2169 29.0241 30.4819 28.494 30.6145C28.0964 30.747 27.5663 30.8795 26.506 31.012H17.494C16.5978 31.012 16.0803 30.8227 15.7015 30.684C15.6322 30.6586 15.5675 30.635 15.506 30.6145C15.3954 30.5591 15.2905 30.5096 15.1902 30.4622C14.8099 30.2825 14.4953 30.1339 14.1807 29.8193C13.7831 29.4217 13.5181 29.0241 13.3855 28.494C13.253 28.0964 13.1205 27.5663 12.988 26.506V17.494C12.988 16.5978 13.1773 16.0803 13.316 15.7015C13.3414 15.6322 13.365 15.5675 13.3855 15.506C13.4408 15.3955 13.4904 15.2904 13.5378 15.1902C13.7175 14.8099 13.8661 14.4953 14.1807 14.1807C14.5783 13.7831 14.9759 13.5181 15.506 13.3855C15.9036 13.253 16.4337 13.1205 17.494 12.988Z" fill="white"/>
</g>
</g>
<defs>
<clipPath id="clip0_4011_2371">
<rect width="44" height="44" rx="22" fill="white"/>
</clipPath>
<clipPath id="clip1_4011_2371">
<rect width="22" height="22" fill="white" transform="translate(11 11)"/>
</clipPath>
</defs>
</svg>
