<svg width="44" height="44" viewBox="0 0 44 44" fill="none" xmlns="http://www.w3.org/2000/svg">
<g clip-path="url(#clip0_4011_6)">
<circle cx="22" cy="22" r="22" fill="#101036"/>
<path d="M11.5273 13.9155C11.5273 15.3734 12.5876 16.4336 14.0454 16.4336C15.5032 16.4336 16.5635 15.3734 16.5635 13.9155C16.5635 12.4577 15.5032 11.3975 14.0454 11.3975C12.7201 11.3975 11.5273 12.4577 11.5273 13.9155Z" fill="white"/>
<path d="M11.7924 18.4216V32.6023H16.2984V18.4216H11.7924Z" fill="white"/>
<path d="M28.2261 32.6023H32.4671V23.8553C32.4671 19.4818 29.8165 18.024 27.2984 18.024C25.0454 18.024 23.4551 19.4818 23.0575 20.4095V18.4216H18.8165V32.6023H23.3225V25.0481C23.3225 23.0601 24.6478 21.9999 25.9731 21.9999C27.2984 21.9999 28.2261 22.6625 28.2261 24.9155V32.6023Z" fill="white"/>
</g>
<defs>
<clipPath id="clip0_4011_6">
<rect width="44" height="44" rx="22" fill="white"/>
</clipPath>
</defs>
</svg>
