<svg width="48" height="48" viewBox="0 0 48 48" fill="none" xmlns="http://www.w3.org/2000/svg">
<path d="M8 18V34C8 37.3137 10.6863 40 14 40H34C37.3137 40 40 37.3137 40 34V18" stroke="#101036" stroke-width="1.8"/>
<path d="M24 8H38.5258C39.2121 8 39.8482 8.3686 40.2013 8.97101L43.7185 14.971C44.5 16.3041 43.5618 18 42.043 18H32.0747C30.702 18 29.4299 17.2628 28.7236 16.058L24 8Z" stroke="#101036" stroke-width="1.8"/>
<path d="M24 8H9.47425C8.78788 8 8.15183 8.3686 7.7987 8.97101L4.28148 14.971C3.50004 16.3041 4.43819 18 5.95703 18H15.9253C17.298 18 18.5701 17.2628 19.2764 16.058L24 8Z" stroke="#101036" stroke-width="1.8"/>
</svg>
