<svg width="28" height="28" viewBox="0 0 28 28" fill="none" xmlns="http://www.w3.org/2000/svg">
<path d="M3.65085 12.6181C10.0933 9.81124 14.3893 7.96078 16.5388 7.06673C22.676 4.51403 23.9513 4.0706 24.7825 4.05581C24.9653 4.05274 25.3741 4.09805 25.6388 4.3129C25.8624 4.49431 25.9239 4.73938 25.9534 4.91138C25.9828 5.08338 26.0194 5.4752 25.9903 5.78136C25.6577 9.2758 24.2187 17.7559 23.4865 21.6697C23.1768 23.3258 22.5668 23.8811 21.9762 23.9355C20.6929 24.0535 19.7184 23.0873 18.4754 22.2725C16.5303 20.9975 15.4315 20.2038 13.5435 18.9597C11.3616 17.5218 12.7761 16.7316 14.0195 15.4401C14.3449 15.1021 19.9994 9.95885 20.1089 9.49229C20.1226 9.43393 20.1353 9.21642 20.006 9.10157C19.8768 8.98672 19.6861 9.02599 19.5485 9.05723C19.3534 9.10151 16.2462 11.1553 10.2268 15.2185C9.34484 15.8241 8.54597 16.1192 7.83021 16.1038C7.04115 16.0867 5.52331 15.6576 4.39495 15.2908C3.01097 14.841 1.91101 14.6031 2.00679 13.8391C2.05668 13.4411 2.6047 13.0341 3.65085 12.6181Z" fill="#101036"/>
</svg>
