<svg width="48" height="48" viewBox="0 0 48 48" fill="none" xmlns="http://www.w3.org/2000/svg">
<g clip-path="url(#clip0_241_3042)">
<path d="M24 24H23.1C23.1 24.3874 23.3479 24.7313 23.7154 24.8538L24 24ZM24.9 14C24.9 13.5029 24.4971 13.1 24 13.1C23.5029 13.1 23.1 13.5029 23.1 14H24.9ZM29.7154 26.8538C30.1869 27.011 30.6966 26.7562 30.8538 26.2846C31.011 25.8131 30.7562 25.3034 30.2846 25.1462L29.7154 26.8538ZM24.9 24V14H23.1V24H24.9ZM23.7154 24.8538L29.7154 26.8538L30.2846 25.1462L24.2846 23.1462L23.7154 24.8538ZM43.1 24C43.1 34.5486 34.5486 43.1 24 43.1V44.9C35.5428 44.9 44.9 35.5428 44.9 24H43.1ZM24 43.1C13.4514 43.1 4.9 34.5486 4.9 24H3.1C3.1 35.5428 12.4572 44.9 24 44.9V43.1ZM4.9 24C4.9 13.4514 13.4514 4.9 24 4.9V3.1C12.4572 3.1 3.1 12.4572 3.1 24H4.9ZM24 4.9C34.5486 4.9 43.1 13.4514 43.1 24H44.9C44.9 12.4572 35.5428 3.1 24 3.1V4.9Z" fill="#101036"/>
</g>
<defs>
<clipPath id="clip0_241_3042">
<rect width="48" height="48" fill="white"/>
</clipPath>
</defs>
</svg>
