<svg width="28" height="28" viewBox="0 0 28 28" fill="none" xmlns="http://www.w3.org/2000/svg">
<path d="M15.001 6.00037C14.4487 6.00037 14.001 6.44809 14.001 7.00037C14.001 7.55265 14.4487 8.00037 15.001 8.00037C16.2738 8.00037 17.2567 8.42026 17.9189 9.08248C18.5811 9.7447 19.001 10.7276 19.001 12.0004C19.001 12.5527 19.4487 13.0004 20.001 13.0004C20.5533 13.0004 21.001 12.5527 21.001 12.0004C21.001 10.2731 20.4209 8.75604 19.3331 7.66826C18.2453 6.58048 16.7282 6.00037 15.001 6.00037Z" fill="#101036"/>
<path d="M7.01498 10.0065C7.12925 9.10277 8.30375 7.87451 9.23586 8.0108L9.23437 8.00931C10.0135 8.15736 10.6531 9.33002 11.0747 10.1028C11.144 10.2298 11.2073 10.346 11.2645 10.445C11.5514 10.9544 11.3651 11.4705 11.0975 11.6882C11.0666 11.7132 11.0341 11.7389 11.0008 11.7654C10.6447 12.0481 10.1821 12.4153 10.2904 12.7838C10.501 13.5004 13.001 16.0004 14.2306 16.7111C14.6071 16.9287 14.8998 16.5061 15.1505 16.1442C15.2097 16.0587 15.2666 15.9766 15.3217 15.9071C15.5311 15.6275 16.0476 15.4604 16.5558 15.7364C17.3148 16.1784 18.0298 16.6921 18.691 17.2704C19.0212 17.5464 19.0987 17.9543 18.8699 18.3854C18.4669 19.1447 17.3013 20.146 16.4552 19.9425C14.9774 19.5872 9.00098 17.2704 7.08131 10.5584C6.98079 10.2627 6.99743 10.1383 7.01186 10.0303L7.01498 10.0065Z" fill="#101036"/>
<path d="M15.001 9.00037C14.4487 9.00037 14.001 9.44809 14.001 10.0004C14.001 10.5526 14.4487 11.0004 15.001 11.0004C15.1758 11.0004 15.4342 11.0978 15.6689 11.3325C15.9035 11.5671 16.001 11.8256 16.001 12.0004C16.001 12.5527 16.4487 13.0004 17.001 13.0004C17.5533 13.0004 18.001 12.5527 18.001 12.0004C18.001 11.1751 17.5985 10.4336 17.0831 9.91826C16.5678 9.40292 15.8262 9.00037 15.001 9.00037Z" fill="#101036"/>
<path fill-rule="evenodd" clip-rule="evenodd" d="M9.51876 25.8313C9.54721 25.847 9.57642 25.8613 9.60626 25.8741C10.149 26.1075 10.8189 25.5864 12.1587 24.5443L13.5013 23.5001C16.1897 23.5891 18.5153 23.2363 20.3133 22.6072C22.324 21.9036 23.9049 20.3227 24.6085 18.312C25.5781 15.5411 25.5781 10.459 24.6085 7.68806C23.9049 5.67734 22.324 4.09642 20.3133 3.39283C17.1116 2.27253 10.8313 2.29343 7.6894 3.39283C5.67867 4.09642 4.09776 5.67734 3.39417 7.68806C2.4246 10.459 2.4246 15.5411 3.39417 18.312C4.09776 20.3227 5.67867 21.9036 7.6894 22.6072C8.08386 22.7452 8.52505 22.8966 9.00134 23.0001C9.00134 24.6975 9.00134 25.5462 9.51876 25.8313ZM11.0013 22.9108V21.791C11.0013 21.5558 10.8373 21.3525 10.6073 21.3033C9.84541 21.1404 9.0881 20.9777 8.34996 20.7194C6.91372 20.2169 5.7845 19.0876 5.28194 17.6514C4.90005 16.56 4.66699 14.8454 4.66699 13C4.66699 11.1547 4.90005 9.43999 5.28194 8.34862C5.7845 6.91239 6.91372 5.78316 8.34996 5.2806C9.61759 4.83704 11.7185 4.56294 13.9811 4.56044C16.2435 4.55794 18.3574 4.82735 19.6527 5.2806C21.0889 5.78316 22.2182 6.91239 22.7207 8.34862C23.1026 9.43999 23.3357 11.1547 23.3357 13C23.3357 14.8454 23.1026 16.56 22.7207 17.6514C22.2182 19.0876 21.0889 20.2169 19.6527 20.7194C17.521 21.4653 15.2603 21.5491 13.0252 21.4829C12.9084 21.4795 12.7939 21.5166 12.7017 21.5883L11.0013 22.9108Z" fill="#101036"/>
</svg>
