<svg width="28" height="28" viewBox="0 0 28 28" fill="none" xmlns="http://www.w3.org/2000/svg">
<path fill-rule="evenodd" clip-rule="evenodd" d="M22.401 5.44988C20.151 3.19988 17.151 1.99988 14.001 1.99988C7.40098 1.99988 2.00098 7.39988 2.00098 13.9999C2.00098 16.0999 2.60099 18.1999 3.65099 19.9999L2.00098 25.9999L8.30099 24.3499C10.101 25.2499 12.051 25.8499 14.001 25.8499C20.601 25.8499 26.001 20.4499 26.001 13.8499C26.001 10.6999 24.651 7.69988 22.401 5.44988ZM14.001 23.8999C12.201 23.8999 10.401 23.4499 8.90099 22.5499L8.60097 22.3999L4.85097 23.4499L5.90099 19.8499L5.60097 19.3999C4.55097 17.7499 4.10097 15.9499 4.10097 14.1499C4.10097 8.74988 8.60098 4.24988 14.001 4.24988C16.701 4.24988 19.101 5.29988 21.051 7.09988C23.001 9.04988 23.901 11.4499 23.901 14.1499C23.901 19.3999 19.551 23.8999 14.001 23.8999ZM19.401 16.3999C19.101 16.2499 17.601 15.4999 17.301 15.4999C17.001 15.3499 16.851 15.3499 16.701 15.6499C16.551 15.9499 15.951 16.5499 15.801 16.8499C15.651 16.9999 15.501 16.9999 15.201 16.9999C14.901 16.8499 14.001 16.5499 12.801 15.4999C11.901 14.7499 11.301 13.6999 11.151 13.3999C11.001 13.0999 11.151 12.9499 11.301 12.7999C11.451 12.6499 11.601 12.4999 11.751 12.3499C11.901 12.1999 11.901 12.0499 12.051 11.8999C12.201 11.7499 12.051 11.5999 12.051 11.4499C12.051 11.2999 11.451 9.79988 11.151 9.19988C11.001 8.74988 10.701 8.74988 10.551 8.74988C10.401 8.74988 10.251 8.74988 9.95096 8.74988C9.80096 8.74988 9.50096 8.74988 9.20096 9.04988C8.90096 9.34988 8.15099 10.0999 8.15099 11.5999C8.15099 13.0999 9.20097 14.4499 9.35097 14.7499C9.50097 14.8999 11.451 18.0499 14.451 19.2499C17.001 20.2999 17.451 19.9999 18.051 19.9999C18.651 19.9999 19.851 19.2499 20.001 18.6499C20.301 17.8999 20.301 17.2999 20.151 17.2999C20.001 16.5499 19.701 16.5499 19.401 16.3999Z" fill="#101036"/>
</svg>
