<svg width="41" height="29" viewBox="0 0 41 29" fill="none" xmlns="http://www.w3.org/2000/svg">
<rect x="0.291667" y="0.791667" width="40.25" height="27.4167" rx="3.20833" fill="white" stroke="#D9D9D9" stroke-width="0.583333"/>
<path fill-rule="evenodd" clip-rule="evenodd" d="M9.73791 10.9217C10.2863 10.968 10.8347 10.6442 11.1774 10.2336C11.5144 9.81153 11.7372 9.24486 11.6801 8.66663C11.1945 8.68976 10.5948 8.99044 10.252 9.41255C9.93784 9.77684 9.66936 10.3666 9.73791 10.9217ZM16.2614 18.3694V9.35471H19.6031C21.3282 9.35471 22.5335 10.5574 22.5335 12.3153C22.5335 14.0731 21.3053 15.2874 19.5574 15.2874H17.6437V18.3694H16.2614ZM11.6743 11.0316C11.1912 11.0034 10.7504 11.1787 10.3943 11.3202C10.1652 11.4113 9.97115 11.4884 9.82353 11.4884C9.65788 11.4884 9.45583 11.4071 9.22898 11.3159C8.93173 11.1964 8.59189 11.0597 8.23551 11.0663C7.41865 11.0778 6.65892 11.5462 6.24192 12.2921C5.38507 13.784 6.01914 15.9928 6.84742 17.2071C7.253 17.8085 7.73854 18.4677 8.37832 18.4446C8.65979 18.4338 8.86225 18.3468 9.07179 18.2568C9.31302 18.1532 9.56362 18.0456 9.95492 18.0456C10.3326 18.0456 10.5723 18.1504 10.8023 18.2511C11.0211 18.3467 11.2311 18.4386 11.5429 18.433C12.2056 18.4214 12.6226 17.8316 13.0281 17.2303C13.4658 16.5848 13.6582 15.9549 13.6873 15.8593L13.6908 15.8483C13.6901 15.8476 13.6847 15.8451 13.6752 15.8407L13.6751 15.8407L13.6751 15.8407C13.5288 15.7728 12.4105 15.2546 12.3998 13.8649C12.389 12.6985 13.2868 12.1075 13.4281 12.0145C13.4367 12.0088 13.4425 12.005 13.4451 12.003C12.8739 11.1472 11.9828 11.0547 11.6743 11.0316ZM25.0584 18.4388C25.9266 18.4388 26.7321 17.9936 27.0977 17.2881H27.1262V18.3694H28.4058V13.8823C28.4058 12.5813 27.3776 11.7429 25.7952 11.7429C24.3272 11.7429 23.2418 12.5929 23.2019 13.7609H24.4471C24.55 13.2058 25.0584 12.8415 25.7553 12.8415C26.6007 12.8415 27.0748 13.2405 27.0748 13.9749V14.4721L25.3497 14.5762C23.7445 14.6745 22.8763 15.3395 22.8763 16.496C22.8763 17.664 23.7731 18.4388 25.0584 18.4388ZM25.4296 17.3691C24.6927 17.3691 24.2243 17.0105 24.2243 16.4612C24.2243 15.8946 24.6756 15.565 25.5381 15.5129L27.0747 15.4146V15.9235C27.0747 16.7677 26.3664 17.3691 25.4296 17.3691ZM32.6499 18.7222C32.0959 20.3007 31.4618 20.8212 30.1137 20.8212C30.0109 20.8212 29.6681 20.8096 29.5882 20.7865V19.7052C29.6738 19.7167 29.8852 19.7283 29.9937 19.7283C30.6049 19.7283 30.9477 19.4681 31.159 18.7915L31.2847 18.3926L28.9427 11.8296H30.3879L32.0159 17.1551H32.0444L33.6724 11.8296H35.0777L32.6499 18.7222ZM17.6436 10.5343H19.2374C20.437 10.5343 21.1224 11.182 21.1224 12.3211C21.1224 13.4602 20.437 14.1136 19.2317 14.1136H17.6436V10.5343Z" fill="black"/>
</svg>
