<svg width="41" height="29" viewBox="0 0 41 29" fill="none" xmlns="http://www.w3.org/2000/svg">
<rect x="0.291667" y="0.791667" width="40.25" height="27.4167" rx="3.20833" fill="white" stroke="#D9D9D9" stroke-width="0.583333"/>
<path fill-rule="evenodd" clip-rule="evenodd" d="M19.2865 18.8843V15.3599H21.1056C21.851 15.3599 22.4801 15.1101 22.993 14.6175L23.1161 14.4927C24.053 13.4728 23.9914 11.884 22.993 10.9405C22.4938 10.4409 21.8099 10.1703 21.1056 10.1842H18.1855V18.8843H19.2865ZM19.2867 14.2914V11.2526H21.1333C21.53 11.2526 21.9062 11.4053 22.1866 11.6828C22.7817 12.2656 22.7954 13.2369 22.2208 13.8405C21.9404 14.1388 21.5437 14.3053 21.1333 14.2914H19.2867ZM28.2518 13.3965C27.7799 12.9594 27.1371 12.7374 26.3233 12.7374C25.2771 12.7374 24.4906 13.1259 23.9709 13.896L24.942 14.5135C25.2976 13.9862 25.7831 13.7226 26.3986 13.7226C26.7884 13.7226 27.1645 13.8683 27.4585 14.1319C27.7458 14.3817 27.9099 14.7424 27.9099 15.124V15.3807C27.4859 15.1448 26.9525 15.02 26.296 15.02C25.5301 15.02 24.9146 15.2003 24.4564 15.5681C23.9983 15.9358 23.7658 16.4214 23.7658 17.0389C23.7521 17.6009 23.9914 18.1351 24.4154 18.4958C24.8462 18.8844 25.3933 19.0786 26.0361 19.0786C26.7952 19.0786 27.397 18.7387 27.8552 18.0588H27.903V18.8844H28.9562V15.2142C28.9562 14.4441 28.7237 13.8336 28.2518 13.3965ZM25.2635 17.7882C25.0378 17.6217 24.901 17.3511 24.901 17.0597C24.901 16.7336 25.0515 16.463 25.3456 16.248C25.6466 16.0329 26.0227 15.9219 26.4673 15.9219C27.0829 15.9149 27.5616 16.0537 27.9036 16.3312C27.9036 16.803 27.7189 17.2123 27.3565 17.5592C27.0282 17.8922 26.5836 18.0796 26.1185 18.0796C25.8107 18.0865 25.5098 17.9824 25.2635 17.7882ZM31.3223 21.4999L35.0014 12.9317H33.8047L32.1019 17.2054H32.0814L30.3375 12.9317H29.1408L31.5548 18.5028L30.1871 21.4999H31.3223Z" fill="#3C4043"/>
<path d="M15.4852 14.5968C15.4852 14.2568 15.4578 13.9169 15.4031 13.5839H10.7598V15.5057H13.4199C13.3105 16.1231 12.9549 16.6782 12.4352 17.0251V18.2739H14.0217C14.9518 17.4066 15.4852 16.1231 15.4852 14.5968Z" fill="#4285F4"/>
<path d="M10.7604 19.4811C12.0871 19.4811 13.2086 19.0371 14.0224 18.2739L12.4359 17.0251C11.9914 17.3303 11.4238 17.5038 10.7604 17.5038C9.47479 17.5038 8.38747 16.6227 7.99768 15.4432H6.36328V16.7337C7.19758 18.4196 8.90036 19.4811 10.7604 19.4811Z" fill="#34A853"/>
<path d="M7.997 15.4432C7.79181 14.8258 7.79181 14.1528 7.997 13.5284V12.2449H6.36234C5.65787 13.6533 5.65787 15.3184 6.36234 16.7267L7.997 15.4432Z" fill="#FBBC04"/>
<path d="M10.7604 11.4678C11.4648 11.454 12.1418 11.7245 12.6478 12.2171L14.0566 10.7879C13.1607 9.9415 11.9845 9.47666 10.7604 9.49054C8.90036 9.49054 7.19758 10.559 6.36328 12.2449L7.99768 13.5353C8.38747 12.3489 9.47479 11.4678 10.7604 11.4678Z" fill="#EA4335"/>
</svg>
