<svg width="41" height="29" viewBox="0 0 41 29" fill="none" xmlns="http://www.w3.org/2000/svg">
<rect x="0.291667" y="0.791667" width="40.25" height="27.4167" rx="3.20833" fill="white" stroke="#D9D9D9" stroke-width="0.583333"/>
<path fill-rule="evenodd" clip-rule="evenodd" d="M25.8729 22.4403C30.2697 22.4403 33.834 18.8347 33.834 14.3869C33.834 9.93904 30.2697 6.33337 25.8729 6.33337C23.9024 6.33337 22.0991 7.05759 20.709 8.25726C19.3188 7.05761 17.5155 6.33341 15.5451 6.33341C11.1483 6.33341 7.58398 9.93908 7.58398 14.3869C7.58398 18.8347 11.1483 22.4404 15.5451 22.4404C17.5155 22.4404 19.3188 21.7162 20.709 20.5165C22.0992 21.7161 23.9024 22.4403 25.8729 22.4403Z" fill="#ED0006"/>
<path fill-rule="evenodd" clip-rule="evenodd" d="M20.709 20.5165C22.4207 19.0393 23.5061 16.8413 23.5061 14.3869C23.5061 11.9324 22.4207 9.73441 20.709 8.25725C22.0992 7.05759 23.9024 6.33337 25.8729 6.33337C30.2697 6.33337 33.834 9.93904 33.834 14.3869C33.834 18.8347 30.2697 22.4403 25.8729 22.4403C23.9024 22.4403 22.0992 21.7161 20.709 20.5165Z" fill="#F9A000"/>
<path fill-rule="evenodd" clip-rule="evenodd" d="M20.7092 20.5163C22.4209 19.0392 23.5063 16.8412 23.5063 14.3868C23.5063 11.9323 22.4209 9.73436 20.7092 8.2572C18.9975 9.73436 17.9121 11.9323 17.9121 14.3868C17.9121 16.8412 18.9975 19.0392 20.7092 20.5163Z" fill="#FF5E00"/>
</svg>
