<svg width="41" height="29" viewBox="0 0 41 29" fill="none" xmlns="http://www.w3.org/2000/svg">
<rect x="0.291667" y="0.791667" width="40.25" height="27.4167" rx="3.20833" fill="white" stroke="#D9D9D9" stroke-width="0.583333"/>
<path fill-rule="evenodd" clip-rule="evenodd" d="M11.55 18.2811H9.73512C9.61093 18.2811 9.5053 18.3714 9.48594 18.494L8.7519 23.1479C8.73731 23.2397 8.80843 23.3225 8.90158 23.3225H9.76802C9.89222 23.3225 9.99785 23.2322 10.0172 23.1094L10.2152 21.8542C10.2343 21.7313 10.3402 21.6411 10.4641 21.6411H11.0386C12.2342 21.6411 12.9241 21.0626 13.1044 19.9162C13.1856 19.4146 13.1078 19.0205 12.8729 18.7445C12.615 18.4415 12.1574 18.2811 11.55 18.2811ZM11.7594 19.9809C11.6602 20.6322 11.1626 20.6322 10.6815 20.6322H10.4076L10.5997 19.4159C10.6111 19.3424 10.6748 19.2883 10.7491 19.2883H10.8746C11.2024 19.2883 11.5116 19.2883 11.6713 19.4751C11.7665 19.5866 11.7957 19.7521 11.7594 19.9809ZM16.9751 19.96H16.106C16.032 19.96 15.968 20.0142 15.9566 20.0877L15.9181 20.3308L15.8574 20.2427C15.6692 19.9696 15.2497 19.8784 14.8309 19.8784C13.8705 19.8784 13.0502 20.6057 12.8904 21.6262C12.8074 22.1351 12.9254 22.6218 13.2142 22.9612C13.4791 23.2732 13.858 23.4033 14.3089 23.4033C15.0827 23.4033 15.5119 22.9057 15.5119 22.9057L15.4731 23.1472C15.4585 23.2396 15.5296 23.3224 15.6222 23.3224H16.4051C16.5296 23.3224 16.6346 23.2321 16.6542 23.1093L17.124 20.1347C17.1388 20.0432 17.068 19.96 16.9751 19.96ZM15.7636 21.6516C15.6798 22.1481 15.2857 22.4814 14.7832 22.4814C14.5308 22.4814 14.329 22.4005 14.1996 22.2471C14.0711 22.0948 14.0222 21.8779 14.0631 21.6365C14.1415 21.1441 14.5422 20.8 15.0371 20.8C15.2838 20.8 15.4845 20.8819 15.6166 21.0367C15.749 21.193 15.8016 21.4111 15.7636 21.6516ZM20.7305 19.9599H21.6039C21.7262 19.9599 21.7975 20.0971 21.728 20.1974L18.8233 24.3903C18.7762 24.4582 18.6987 24.4986 18.616 24.4986H17.7437C17.6209 24.4986 17.5491 24.3603 17.6203 24.2598L18.5247 22.983L17.5628 20.16C17.5295 20.0618 17.602 19.9599 17.7063 19.9599H18.5645C18.676 19.9599 18.7744 20.0331 18.8066 20.1398L19.3171 21.8449L20.5217 20.0706C20.5689 20.0013 20.6472 19.9599 20.7305 19.9599Z" fill="#253B80"/>
<path fill-rule="evenodd" clip-rule="evenodd" d="M30.1997 23.1479L30.9445 18.4088C30.9559 18.3353 31.0196 18.2811 31.0937 18.2809H31.9322C32.0248 18.2809 32.0959 18.3639 32.0813 18.4558L31.3468 23.1094C31.3276 23.2322 31.222 23.3225 31.0976 23.3225H30.3488C30.2562 23.3225 30.1851 23.2397 30.1997 23.1479ZM24.4954 18.2811H22.6802C22.5563 18.2811 22.4506 18.3714 22.4312 18.494L21.6972 23.1479C21.6826 23.2397 21.7537 23.3225 21.8464 23.3225H22.7778C22.8644 23.3225 22.9384 23.2594 22.9519 23.1734L23.1602 21.8542C23.1794 21.7313 23.2852 21.6411 23.4092 21.6411H23.9834C25.1792 21.6411 25.869 21.0626 26.0494 19.9162C26.1308 19.4146 26.0526 19.0206 25.8178 18.7445C25.56 18.4415 25.1028 18.2811 24.4954 18.2811ZM24.7048 19.9809C24.6058 20.6322 24.1082 20.6322 23.6268 20.6322H23.3532L23.5456 19.4159C23.557 19.3424 23.6201 19.2883 23.6947 19.2883H23.8202C24.1477 19.2883 24.4572 19.2883 24.6168 19.4751C24.7121 19.5866 24.7411 19.7521 24.7048 19.9809ZM29.92 19.96H29.0515C28.9769 19.96 28.9135 20.0142 28.9023 20.0877L28.8639 20.3308L28.8029 20.2427C28.6147 19.9696 28.1954 19.8784 27.7767 19.8784C26.8162 19.8784 25.9962 20.6057 25.8364 21.6262C25.7537 22.1351 25.8712 22.6218 26.1599 22.9612C26.4253 23.2732 26.8038 23.4033 27.2546 23.4033C28.0284 23.4033 28.4575 22.9057 28.4575 22.9057L28.4188 23.1472C28.4042 23.2396 28.4753 23.3224 28.5685 23.3224H29.3511C29.475 23.3224 29.5806 23.2321 29.6 23.1093L30.07 20.1347C30.0843 20.0432 30.0132 19.96 29.92 19.96ZM28.7087 21.6516C28.6253 22.1481 28.2307 22.4814 27.728 22.4814C27.4762 22.4814 27.274 22.4005 27.1445 22.2471C27.016 22.0948 26.9677 21.8779 27.0081 21.6365C27.0869 21.1441 27.4871 20.8 27.982 20.8C28.2289 20.8 28.4294 20.8819 28.5617 21.0367C28.6945 21.193 28.7471 21.4111 28.7087 21.6516Z" fill="#179BD7"/>
<path d="M18.2663 16.6162L18.4894 15.199L17.9924 15.1875H15.6191L17.2684 4.72969C17.2735 4.69812 17.2902 4.66868 17.3145 4.64778C17.3388 4.62688 17.37 4.61536 17.4024 4.61536H21.4041C22.7326 4.61536 23.6494 4.89181 24.1281 5.43745C24.3525 5.69343 24.4954 5.96092 24.5645 6.25529C24.637 6.56417 24.6384 6.9332 24.5675 7.38329L24.5623 7.41614V7.70452L24.7868 7.83167C24.9758 7.93192 25.1259 8.04668 25.2411 8.17808C25.4332 8.39694 25.5573 8.6751 25.6098 9.00487C25.6639 9.34404 25.646 9.74762 25.5573 10.2045C25.4549 10.7301 25.2894 11.1879 25.0658 11.5625C24.8601 11.9076 24.5982 12.1938 24.2872 12.4157C23.9903 12.6265 23.6375 12.7865 23.2386 12.8889C22.852 12.9895 22.4114 13.0403 21.928 13.0403H21.6166C21.3939 13.0403 21.1775 13.1205 21.0078 13.2643C20.8376 13.4111 20.7249 13.6115 20.6903 13.8308L20.6669 13.9584L20.2727 16.4562L20.2547 16.548C20.2501 16.5771 20.242 16.5915 20.2301 16.6014C20.2194 16.6102 20.204 16.6162 20.189 16.6162H18.2663Z" fill="#253B80"/>
<path d="M24.9994 7.44946C24.9875 7.52582 24.9738 7.60389 24.9585 7.6841C24.4306 10.3936 22.6253 11.3296 20.3193 11.3296H19.1453C18.8633 11.3296 18.6257 11.5344 18.5817 11.8125L17.9806 15.6249L17.8103 16.7054C17.7817 16.8881 17.9226 17.0527 18.1068 17.0527H20.1892C20.4358 17.0527 20.6452 16.8736 20.684 16.6304L20.7045 16.5246L21.0967 14.0365L21.1218 13.9C21.1602 13.656 21.37 13.4768 21.6166 13.4768H21.9281C23.9456 13.4768 25.525 12.6577 25.9866 10.2874C26.1794 9.29716 26.0796 8.47037 25.5693 7.88888C25.4149 7.71354 25.2234 7.56806 24.9994 7.44946Z" fill="#179BD7"/>
<path d="M24.4477 7.22958C24.3671 7.20611 24.2839 7.18478 24.1985 7.16558C24.1128 7.14682 24.0249 7.13018 23.9345 7.11568C23.6179 7.06448 23.2711 7.04016 22.8994 7.04016H19.7629C19.6857 7.04016 19.6124 7.05765 19.5467 7.08922C19.402 7.15876 19.2946 7.29571 19.2685 7.46337L18.6012 11.6895L18.582 11.8128C18.626 11.5346 18.8636 11.3298 19.1456 11.3298H20.3196C22.6256 11.3298 24.4311 10.3934 24.9588 7.68436C24.9745 7.60415 24.9878 7.52608 24.9997 7.44972C24.8662 7.3789 24.7215 7.31832 24.5658 7.26669C24.5275 7.2539 24.4878 7.24153 24.4477 7.22958Z" fill="#222D65"/>
<path d="M19.2675 7.46328C19.2935 7.29561 19.4011 7.15867 19.5457 7.08955C19.6119 7.05798 19.6848 7.04049 19.7619 7.04049H22.8986C23.2702 7.04049 23.617 7.06481 23.9335 7.116C24.024 7.13051 24.1119 7.14715 24.1976 7.16591C24.283 7.18512 24.3661 7.20645 24.4468 7.22991C24.4868 7.24186 24.5265 7.25422 24.5653 7.2666C24.721 7.31822 24.8657 7.37923 24.9992 7.44962C25.1562 6.44834 24.9979 5.7666 24.4566 5.14927C23.8598 4.46967 22.7825 4.17871 21.4041 4.17871H17.4023C17.1207 4.17871 16.8806 4.38348 16.837 4.66207L15.1703 15.2274C15.1374 15.4364 15.2986 15.625 15.5094 15.625H17.98L18.6003 11.6894L19.2675 7.46328Z" fill="#253B80"/>
</svg>
