<svg width="42" height="29" viewBox="0 0 42 29" fill="none" xmlns="http://www.w3.org/2000/svg">
<rect x="1.12565" y="0.791667" width="40.25" height="27.4167" rx="3.20833" fill="white" stroke="#D9D9D9" stroke-width="0.583333"/>
<path fill-rule="evenodd" clip-rule="evenodd" d="M13.2301 19.4679H10.7564L8.90143 12.391C8.81339 12.0655 8.62644 11.7777 8.35145 11.6421C7.66518 11.3012 6.90896 11.0299 6.08398 10.8931V10.6206H10.0689C10.6189 10.6206 11.0314 11.0299 11.1001 11.5052L12.0626 16.61L14.5351 10.6206H16.9401L13.2301 19.4679ZM18.315 19.4679H15.9788L17.9025 10.6206H20.2387L18.315 19.4679ZM23.2613 13.0716C23.33 12.5951 23.7425 12.3227 24.2237 12.3227C24.9799 12.2542 25.8037 12.3911 26.4912 12.7308L26.9037 10.8259C26.2162 10.5534 25.46 10.4166 24.7737 10.4166C22.5062 10.4166 20.8563 11.6421 20.8563 13.3429C20.8563 14.6368 22.025 15.3162 22.85 15.7254C23.7425 16.1335 24.0862 16.406 24.0175 16.8141C24.0175 17.4262 23.33 17.6987 22.6437 17.6987C21.8188 17.6987 20.9938 17.4947 20.2388 17.1538L19.8263 19.0598C20.6513 19.3995 21.5438 19.5363 22.3687 19.5363C24.9112 19.6036 26.4912 18.3793 26.4912 16.5416C26.4912 14.2275 23.2613 14.0919 23.2613 13.0716ZM34.6673 19.4679L32.8123 10.6206H30.8198C30.4073 10.6206 29.9949 10.8931 29.8574 11.3012L26.4224 19.4679H28.8274L29.3074 18.1752H32.2623L32.5373 19.4679H34.6673ZM31.1636 13.0032L31.8499 16.3376H29.9262L31.1636 13.0032Z" fill="#172B85"/>
</svg>
