<svg width="130" height="32" viewBox="0 0 130 32" fill="none" xmlns="http://www.w3.org/2000/svg">
<path fill-rule="evenodd" clip-rule="evenodd" d="M110.59 14.7241C110.59 12.7869 110.009 11.29 108.846 10.2334C107.684 9.14151 105.923 8.59558 103.563 8.59558C101.978 8.59558 100.411 8.84213 98.8611 9.33522C97.3466 9.82832 96.061 10.5151 95.0044 11.3957L92.4156 6.58797C93.9301 5.42567 95.7264 4.56275 97.8045 3.99922C99.9177 3.40045 102.101 3.10107 104.356 3.10107C108.441 3.10107 111.594 4.08727 113.812 6.05965C116.067 7.99682 117.194 11.0082 117.194 15.0939V31.6302H110.96V28.2068C110.304 29.1889 109.406 29.9955 108.265 30.6264C106.645 31.5422 104.585 32.0001 102.084 32.0001C99.9706 32.0001 98.1215 31.6478 96.5365 30.9434C94.9515 30.2038 93.7188 29.2 92.8383 27.932C91.993 26.6288 91.5703 25.1671 91.5703 23.547C91.5703 21.962 91.9401 20.5356 92.6798 19.2676C93.4546 17.9996 94.705 16.9958 96.4308 16.2562C98.1567 15.5165 100.446 15.1467 103.299 15.1467H110.59V14.7241ZM99.2309 20.6412C100.006 19.9016 101.52 19.5318 103.774 19.5318H110.59V22.8073C110.026 24.2514 109.093 25.3432 107.79 26.0829C106.522 26.8225 105.078 27.1924 103.457 27.1924C101.767 27.1924 100.446 26.8402 99.4951 26.1357C98.5441 25.4313 98.0686 24.4803 98.0686 23.2828C98.0686 22.2262 98.4561 21.3456 99.2309 20.6412Z" fill="#1E1F1C"/>
<path d="M75.8231 32C72.8645 32 70.2229 31.3836 67.8983 30.1509C65.6089 28.8829 63.8126 27.1571 62.5095 24.9734C61.2063 22.7896 60.5547 20.3065 60.5547 17.5241C60.5547 14.7064 61.2063 12.2233 62.5095 10.0748C63.8126 7.89108 65.6089 6.18285 67.8983 4.95011C70.2229 3.71737 72.8645 3.101 75.8231 3.101C78.5703 3.101 80.983 3.66454 83.061 4.79161C85.1743 5.88347 86.7769 7.50365 87.8687 9.65214L82.7969 12.6107C81.9516 11.2723 80.9125 10.2861 79.6798 9.65214C78.4823 9.01816 77.1791 8.70117 75.7702 8.70117C74.1501 8.70117 72.6884 9.05338 71.3852 9.7578C70.082 10.4622 69.0606 11.4836 68.321 12.822C67.5813 14.1252 67.2115 15.6926 67.2115 17.5241C67.2115 19.3556 67.5813 20.9405 68.321 22.2789C69.0606 23.5821 70.082 24.5859 71.3852 25.2903C72.6884 25.9948 74.1501 26.347 75.7702 26.347C77.1791 26.347 78.4823 26.03 79.6798 25.396C80.9125 24.762 81.9516 23.7758 82.7969 22.4374L87.8687 25.396C86.7769 27.5093 85.1743 29.1471 83.061 30.3094C80.983 31.4364 78.5703 32 75.8231 32Z" fill="#1E1F1C"/>
<path d="M44.4068 32C42.047 32 39.7752 31.7006 37.5915 31.1018C35.443 30.4679 33.7348 29.7106 32.4668 28.8301L35.0027 23.8111C36.2707 24.6211 37.7852 25.2903 39.5463 25.8187C41.3073 26.347 43.0684 26.6111 44.8294 26.6111C46.9075 26.6111 48.4044 26.3294 49.3201 25.7658C50.2711 25.2023 50.7466 24.445 50.7466 23.4941C50.7466 22.7192 50.4296 22.138 49.7956 21.7506C49.1616 21.328 48.3339 21.011 47.3125 20.7996C46.2911 20.5883 45.1464 20.3946 43.8785 20.2185C42.6457 20.0424 41.3954 19.8134 40.1274 19.5317C38.8947 19.2147 37.7676 18.7744 36.7462 18.2109C35.7248 17.6121 34.8971 16.8196 34.2631 15.8335C33.6291 14.8473 33.3121 13.5441 33.3121 11.9239C33.3121 10.1276 33.8228 8.57789 34.8442 7.27471C35.8656 5.9363 37.2921 4.91489 39.1236 4.21046C40.9903 3.47082 43.1916 3.101 45.7276 3.101C47.6295 3.101 49.5491 3.31233 51.4862 3.73498C53.4234 4.15763 55.026 4.75639 56.2939 5.53126L53.758 10.5503C52.4196 9.74019 51.0636 9.19426 49.69 8.91249C48.3516 8.5955 47.0131 8.43701 45.6747 8.43701C43.6671 8.43701 42.1702 8.73639 41.184 9.33515C40.2331 9.93391 39.7576 10.6912 39.7576 11.6069C39.7576 12.4522 40.0746 13.0862 40.7086 13.5089C41.3425 13.9315 42.1702 14.2661 43.1916 14.5127C44.2131 14.7592 45.3401 14.9705 46.5729 15.1466C47.8408 15.2875 49.0912 15.5165 50.3239 15.8335C51.5567 16.1504 52.6838 16.5907 53.7052 17.1542C54.7618 17.6826 55.6071 18.4398 56.2411 19.426C56.8751 20.4122 57.1921 21.6978 57.1921 23.2827C57.1921 25.0438 56.6638 26.5759 55.6071 27.8791C54.5857 29.1823 53.124 30.2037 51.2221 30.9433C49.3201 31.6478 47.0484 32 44.4068 32Z" fill="#1E1F1C"/>
<path fill-rule="evenodd" clip-rule="evenodd" d="M16.0854 32C12.9507 32 10.2034 31.3836 7.84362 30.1509C5.51902 28.8829 3.70513 27.1571 2.40194 24.9734C1.13398 22.7896 0.5 20.3065 0.5 17.5241C0.5 14.7064 1.11637 12.2233 2.34911 10.0748C3.61707 7.89108 5.34291 6.18285 7.52663 4.95011C9.74556 3.71737 12.2639 3.101 15.0816 3.101C17.8288 3.101 20.2767 3.69976 22.4252 4.89728C24.5737 6.0948 26.2643 7.78541 27.497 9.96913C28.7298 12.1528 29.3461 14.724 29.3461 17.6826C29.3461 17.9643 29.3285 18.2813 29.2933 18.6335C29.2933 18.9858 29.2757 19.3204 29.2405 19.6373H7.10446C7.28505 20.6124 7.61948 21.5105 8.10778 22.3318C8.88264 23.6349 9.9745 24.6387 11.3833 25.3432C12.7922 26.0476 14.4124 26.3998 16.2439 26.3998C17.8288 26.3998 19.2553 26.1533 20.5232 25.6602C21.7912 25.1671 22.9183 24.3922 23.9045 23.3356L27.4442 27.4036C26.1762 28.8829 24.5737 30.0276 22.6365 30.8377C20.7346 31.6125 18.5509 32 16.0854 32ZM19.2553 9.44081C20.488 10.1452 21.4566 11.1138 22.161 12.3466C22.6592 13.2183 22.9723 14.1869 23.1006 15.2523H7.04544C7.18998 14.1941 7.49126 13.2431 7.94928 12.3994C8.6537 11.1314 9.60468 10.1452 10.8022 9.44081C12.0349 8.73639 13.4614 8.38417 15.0816 8.38417C16.6665 8.38417 18.0578 8.73639 19.2553 9.44081Z" fill="#1E1F1C"/>
<path fill-rule="evenodd" clip-rule="evenodd" d="M123.291 8.02684C123.796 8.23962 124.344 8.34602 124.935 8.34602C125.526 8.34602 126.073 8.23962 126.578 8.02684C127.082 7.81405 127.524 7.51851 127.902 7.14022C128.288 6.75405 128.587 6.30877 128.8 5.80438C129.013 5.29212 129.119 4.74044 129.119 4.14937C129.119 3.55829 129.013 3.0145 128.8 2.51799C128.595 2.0136 128.304 1.57227 127.925 1.19398C127.555 0.815687 127.114 0.524088 126.601 0.319181C126.097 0.106394 125.549 0 124.958 0C124.367 0 123.816 0.106394 123.303 0.319181C122.799 0.531969 122.358 0.831449 121.979 1.21762C121.601 1.59591 121.305 2.03725 121.093 2.54163C120.88 3.04602 120.773 3.58981 120.773 4.17301C120.773 4.75621 120.876 5.3 121.081 5.80438C121.294 6.30877 121.589 6.75405 121.967 7.14022C122.346 7.51851 122.787 7.81405 123.291 8.02684ZM126.318 7.42394C125.892 7.6052 125.427 7.69583 124.923 7.69583C124.434 7.69583 123.977 7.60914 123.552 7.43576C123.126 7.25449 122.756 7.0023 122.44 6.67918C122.125 6.35606 121.881 5.98171 121.707 5.55613C121.534 5.13055 121.447 4.66951 121.447 4.17301C121.447 3.6765 121.534 3.21546 121.707 2.78989C121.889 2.36431 122.133 1.98996 122.44 1.66684C122.756 1.34372 123.126 1.09546 123.552 0.922081C123.985 0.740817 124.454 0.650186 124.958 0.650186C125.463 0.650186 125.924 0.740817 126.341 0.922081C126.767 1.09546 127.133 1.33978 127.441 1.65502C127.756 1.97026 128 2.34067 128.174 2.76624C128.347 3.19182 128.434 3.65286 128.434 4.14937C128.434 4.64587 128.347 5.11085 128.174 5.54431C128 5.97777 127.752 6.35606 127.429 6.67918C127.114 6.99442 126.743 7.24267 126.318 7.42394Z" fill="#1E1F1C"/>
<path fill-rule="evenodd" clip-rule="evenodd" d="M127.204 6.50185H126.188L125.266 5.08109C125.223 5.08254 125.18 5.08327 125.136 5.08327H124.214V6.50185H123.197V1.84416H125.136C125.75 1.84416 126.231 1.98996 126.578 2.28156C126.925 2.57316 127.098 2.96721 127.098 3.46372C127.098 3.97598 126.925 4.37397 126.578 4.65769C126.457 4.75657 126.32 4.83822 126.166 4.90263L127.204 6.50185ZM125.076 4.29122H124.202V2.64803H125.076C125.407 2.64803 125.664 2.71896 125.845 2.86082C126.026 3.00267 126.117 3.20364 126.117 3.46372C126.117 3.72379 126.026 3.9287 125.845 4.07844C125.664 4.22029 125.407 4.29122 125.076 4.29122Z" fill="#1E1F1C"/>
</svg>
